<svg version="1.1" id="Layer_1" xmlns="http://www.w3.org/2000/svg" xmlns:xlink="http://www.w3.org/1999/xlink" x="0px" y="0px"
	 width="100%" viewBox="0 0 512 512" enable-background="new 0 0 512 512" xml:space="preserve">
<path fill="#04BF58" opacity="1.000000" stroke="none" 
	d="
M225.000000,0.999999 
	C246.020889,1.000000 267.041779,1.000000 288.409729,1.411598 
	C293.203674,2.593174 297.672607,3.254405 302.093933,4.150804 
	C330.542999,9.918710 357.702118,19.089365 383.110352,33.461163 
	C410.919678,49.191093 434.792877,69.562820 455.143158,93.929565 
	C469.902313,111.601707 481.964142,131.110031 491.251007,152.366348 
	C501.104370,174.919373 508.111694,198.139496 511.082245,222.579285 
	C511.188202,223.451004 512.337158,224.195953 513.000000,225.000000 
	C513.000000,246.020889 513.000000,267.041779 512.587891,288.410034 
	C511.394806,293.195251 510.689178,297.647949 509.820709,302.068665 
	C503.700500,333.221741 493.163116,362.682648 476.598450,389.916229 
	C461.425171,414.862305 442.478973,436.583069 420.094238,455.139130 
	C401.833618,470.276489 381.789734,482.775482 359.827118,492.105835 
	C337.834839,501.448822 315.235168,508.358673 291.429504,511.083557 
	C290.557953,511.183319 289.807098,512.337280 289.000000,513.000000 
	C267.979095,513.000000 246.958206,513.000000 225.589813,512.588379 
	C224.401489,511.789337 223.593506,511.181732 222.714432,511.050598 
	C217.362442,510.252136 211.916718,509.919708 206.644379,508.776398 
	C177.762634,502.513519 150.416214,492.358398 124.965393,477.075256 
	C99.639282,461.867035 77.711006,442.737762 58.919613,420.159790 
	C43.732956,401.912811 31.266386,381.816589 21.898209,359.848938 
	C12.519673,337.856995 5.676211,315.232147 2.916769,291.428284 
	C2.815712,290.556519 1.662744,289.806671 1.000000,289.000000 
	C1.000000,267.645782 1.000000,246.291550 1.406562,224.597000 
	C2.203937,223.416885 2.792595,222.613342 2.954202,221.731537 
	C4.224805,214.798462 5.166648,207.796387 6.671352,200.916504 
	C12.607071,173.776917 22.793270,148.309601 37.156174,124.514290 
	C53.557232,97.342300 74.444275,74.070625 99.307770,54.509071 
	C118.089211,39.732628 138.649170,27.774971 160.975830,18.984194 
	C180.871582,11.150548 201.279404,5.384936 222.570755,2.916646 
	C223.442856,2.815544 224.193024,1.662788 225.000000,0.999999 
M72.487640,389.993530 
	C83.942657,406.395386 97.649651,420.833771 113.126488,433.314148 
	C129.098648,446.193939 146.500046,456.959442 165.448441,465.331329 
	C193.204361,477.594604 222.230774,483.524902 252.319321,484.908203 
	C258.730347,485.202942 265.250916,484.757324 271.623352,483.914276 
	C285.758514,482.044342 300.069275,480.684509 313.875275,477.332581 
	C335.310730,472.128326 355.538757,463.489349 374.447937,451.908020 
	C398.496307,437.179108 419.311890,418.779388 436.642792,396.613953 
	C457.138794,370.400452 471.651550,341.048279 478.531464,308.458435 
	C481.912109,292.444519 483.175049,275.955811 484.857025,259.626434 
	C485.425262,254.109879 484.689026,248.373795 483.931213,242.822388 
	C481.979889,228.528656 480.674164,214.042450 477.295654,200.072021 
	C472.032349,178.307587 463.244019,157.792923 451.329895,138.685486 
	C436.425293,114.782005 418.108948,94.035622 395.726685,76.844818 
	C377.874634,63.133457 358.557281,52.207371 337.529724,44.126598 
	C313.519440,34.899593 288.601990,30.000631 263.050079,29.241409 
	C250.107101,28.856838 237.057846,30.684967 224.112503,32.044437 
	C201.197418,34.450886 179.670547,41.879139 158.963165,51.618069 
	C142.681503,59.275528 127.759460,69.135979 113.729424,80.504929 
	C100.016609,91.616829 87.789154,104.062752 77.027443,117.956345 
	C63.059776,135.988876 51.951202,155.631027 43.910053,177.057861 
	C36.717312,196.223999 32.018867,215.965698 30.186178,236.258102 
	C29.166403,247.549545 29.868376,259.010162 30.027719,270.391266 
	C30.273252,287.928406 33.980812,304.875031 38.834679,321.659607 
	C45.937553,346.221252 57.309341,368.637573 72.487640,389.993530 
z"/>
<path fill="#ff000000" opacity="1.000000" stroke="none" 
	d="
M513.000000,224.531342 
	C512.337158,224.195953 511.188202,223.451004 511.082245,222.579285 
	C508.111694,198.139496 501.104370,174.919373 491.251007,152.366348 
	C481.964142,131.110031 469.902313,111.601707 455.143158,93.929565 
	C434.792877,69.562820 410.919678,49.191093 383.110352,33.461163 
	C357.702118,19.089365 330.542999,9.918710 302.093933,4.150804 
	C297.672607,3.254405 293.203674,2.593174 288.878357,1.411598 
	C363.593719,1.000000 438.187408,1.000000 513.000000,1.000000 
	C513.000000,75.354088 513.000000,149.708389 513.000000,224.531342 
z"/>
<path fill="#ff000000" opacity="1.000000" stroke="none" 
	d="
M1.000000,289.468658 
	C1.662744,289.806671 2.815712,290.556519 2.916769,291.428284 
	C5.676211,315.232147 12.519673,337.856995 21.898209,359.848938 
	C31.266386,381.816589 43.732956,401.912811 58.919613,420.159790 
	C77.711006,442.737762 99.639282,461.867035 124.965393,477.075256 
	C150.416214,492.358398 177.762634,502.513519 206.644379,508.776398 
	C211.916718,509.919708 217.362442,510.252136 222.714432,511.050598 
	C223.593506,511.181732 224.401489,511.789337 225.121155,512.588379 
	C150.406296,513.000000 75.812599,513.000000 1.000000,513.000000 
	C1.000000,438.645905 1.000000,364.291626 1.000000,289.468658 
z"/>
<path fill="#ff000000" opacity="1.000000" stroke="none" 
	d="
M289.468658,513.000000 
	C289.807098,512.337280 290.557953,511.183319 291.429504,511.083557 
	C315.235168,508.358673 337.834839,501.448822 359.827118,492.105835 
	C381.789734,482.775482 401.833618,470.276489 420.094238,455.139130 
	C442.478973,436.583069 461.425171,414.862305 476.598450,389.916229 
	C493.163116,362.682648 503.700500,333.221741 509.820709,302.068665 
	C510.689178,297.647949 511.394806,293.195251 512.587891,288.878662 
	C513.000000,363.593719 513.000000,438.187408 513.000000,513.000000 
	C438.645905,513.000000 364.291626,513.000000 289.468658,513.000000 
z"/>
<path fill="#ff000000" opacity="1.000000" stroke="none" 
	d="
M224.531342,0.999999 
	C224.193024,1.662788 223.442856,2.815544 222.570755,2.916646 
	C201.279404,5.384936 180.871582,11.150548 160.975830,18.984194 
	C138.649170,27.774971 118.089211,39.732628 99.307770,54.509071 
	C74.444275,74.070625 53.557232,97.342300 37.156174,124.514290 
	C22.793270,148.309601 12.607071,173.776917 6.671352,200.916504 
	C5.166648,207.796387 4.224805,214.798462 2.954202,221.731537 
	C2.792595,222.613342 2.203937,223.416885 1.406562,224.128342 
	C1.000000,149.739456 1.000000,75.478920 1.000000,1.000000 
	C75.354088,1.000000 149.708389,1.000000 224.531342,0.999999 
z"/>
<path fill="#000000" opacity="1.000000" stroke="none" 
	d="
M72.235863,389.730774 
	C57.309341,368.637573 45.937553,346.221252 38.834679,321.659607 
	C33.980812,304.875031 30.273252,287.928406 30.027719,270.391266 
	C29.868376,259.010162 29.166403,247.549545 30.186178,236.258102 
	C32.018867,215.965698 36.717312,196.223999 43.910053,177.057861 
	C51.951202,155.631027 63.059776,135.988876 77.027443,117.956345 
	C87.789154,104.062752 100.016609,91.616829 113.729424,80.504929 
	C127.759460,69.135979 142.681503,59.275528 158.963165,51.618069 
	C179.670547,41.879139 201.197418,34.450886 224.112503,32.044437 
	C237.057846,30.684967 250.107101,28.856838 263.050079,29.241409 
	C288.601990,30.000631 313.519440,34.899593 337.529724,44.126598 
	C358.557281,52.207371 377.874634,63.133457 395.726685,76.844818 
	C418.108948,94.035622 436.425293,114.782005 451.329895,138.685486 
	C463.244019,157.792923 472.032349,178.307587 477.295654,200.072021 
	C480.674164,214.042450 481.979889,228.528656 483.931213,242.822388 
	C484.689026,248.373795 485.425262,254.109879 484.857025,259.626434 
	C483.175049,275.955811 481.912109,292.444519 478.531464,308.458435 
	C471.651550,341.048279 457.138794,370.400452 436.642792,396.613953 
	C419.311890,418.779388 398.496307,437.179108 374.447937,451.908020 
	C355.538757,463.489349 335.310730,472.128326 313.875275,477.332581 
	C300.069275,480.684509 285.758514,482.044342 271.623352,483.914276 
	C265.250916,484.757324 258.730347,485.202942 252.319321,484.908203 
	C222.230774,483.524902 193.204361,477.594604 165.448441,465.331329 
	C146.500046,456.959442 129.098648,446.193939 113.126488,433.314148 
	C97.649651,420.833771 83.942657,406.395386 72.235863,389.730774 
M431.493347,153.956604 
	C430.828156,152.635162 430.282806,151.235596 429.479950,150.003891 
	C415.308533,128.263611 398.246948,109.197495 377.272797,93.771576 
	C342.574585,68.251938 303.469269,55.592861 260.627533,54.074265 
	C254.874481,53.870338 249.064758,54.458900 243.318710,55.046688 
	C234.004990,55.999435 224.598831,56.648792 215.452164,58.509785 
	C196.411438,62.383820 178.351593,69.143143 161.150513,78.316231 
	C146.841110,85.947243 133.612854,95.111382 121.689308,105.966721 
	C101.002831,124.799942 84.574478,146.809219 72.750908,172.368195 
	C60.603313,198.627594 55.108112,226.221100 54.078205,254.875092 
	C53.871338,260.630554 54.433983,266.447144 55.053452,272.191132 
	C56.021030,281.162994 56.838867,290.197449 58.608372,299.027344 
	C63.125408,321.567596 71.790932,342.552490 83.644707,362.234558 
	C95.785469,382.393127 111.334183,399.587769 129.316589,414.642365 
	C132.484482,417.294464 135.961700,419.577087 139.999786,422.548096 
	C139.999786,419.477661 139.964920,417.498444 140.005310,415.520782 
	C140.327454,399.749146 140.240921,383.954132 141.123337,368.213562 
	C141.895660,354.436340 148.160416,342.594177 157.185226,332.423004 
	C171.742050,316.017090 190.413666,308.892426 212.163544,308.971741 
	C242.827988,309.083588 273.493835,308.893280 304.157379,309.093323 
	C310.034882,309.131683 316.061035,309.749847 321.751740,311.169952 
	C352.964203,318.958893 373.614410,345.872131 373.975922,377.858398 
	C374.122833,390.855988 373.992401,403.856567 374.010498,416.855804 
	C374.012726,418.445465 374.153534,420.034973 374.240753,421.845367 
	C451.687927,369.837341 489.481323,253.733551 431.493347,153.956604 
z"/>
<path fill="#04BF58" opacity="1.000000" stroke="none" 
	d="
M431.738892,154.234909 
	C489.481323,253.733551 451.687927,369.837341 374.240753,421.845367 
	C374.153534,420.034973 374.012726,418.445465 374.010498,416.855804 
	C373.992401,403.856567 374.122833,390.855988 373.975922,377.858398 
	C373.614410,345.872131 352.964203,318.958893 321.751740,311.169952 
	C316.061035,309.749847 310.034882,309.131683 304.157379,309.093323 
	C273.493835,308.893280 242.827988,309.083588 212.163544,308.971741 
	C190.413666,308.892426 171.742050,316.017090 157.185226,332.423004 
	C148.160416,342.594177 141.895660,354.436340 141.123337,368.213562 
	C140.240921,383.954132 140.327454,399.749146 140.005310,415.520782 
	C139.964920,417.498444 139.999786,419.477661 139.999786,422.548096 
	C135.961700,419.577087 132.484482,417.294464 129.316589,414.642365 
	C111.334183,399.587769 95.785469,382.393127 83.644707,362.234558 
	C71.790932,342.552490 63.125408,321.567596 58.608372,299.027344 
	C56.838867,290.197449 56.021030,281.162994 55.053452,272.191132 
	C54.433983,266.447144 53.871338,260.630554 54.078205,254.875092 
	C55.108112,226.221100 60.603313,198.627594 72.750908,172.368195 
	C84.574478,146.809219 101.002831,124.799942 121.689308,105.966721 
	C133.612854,95.111382 146.841110,85.947243 161.150513,78.316231 
	C178.351593,69.143143 196.411438,62.383820 215.452164,58.509785 
	C224.598831,56.648792 234.004990,55.999435 243.318710,55.046688 
	C249.064758,54.458900 254.874481,53.870338 260.627533,54.074265 
	C303.469269,55.592861 342.574585,68.251938 377.272797,93.771576 
	C398.246948,109.197495 415.308533,128.263611 429.479950,150.003891 
	C430.282806,151.235596 430.828156,152.635162 431.738892,154.234909 
M325.605072,185.134659 
	C323.158417,171.885864 317.590942,159.875595 308.455475,150.212204 
	C292.453369,133.285385 272.821167,125.086754 249.001099,127.866989 
	C234.036514,129.613617 220.886719,135.293289 210.246506,145.499481 
	C192.149033,162.858734 184.651199,184.113266 188.867691,209.358429 
	C194.869110,245.290283 231.595291,272.046295 268.717163,265.061920 
	C291.667664,260.743896 308.097626,247.920914 319.098541,227.628403 
	C326.204895,214.519913 326.788849,200.370499 325.605072,185.134659 
z"/>
<path fill="#000000" opacity="1.000000" stroke="none" 
	d="
M325.757935,185.552155 
	C326.788849,200.370499 326.204895,214.519913 319.098541,227.628403 
	C308.097626,247.920914 291.667664,260.743896 268.717163,265.061920 
	C231.595291,272.046295 194.869110,245.290283 188.867691,209.358429 
	C184.651199,184.113266 192.149033,162.858734 210.246506,145.499481 
	C220.886719,135.293289 234.036514,129.613617 249.001099,127.866989 
	C272.821167,125.086754 292.453369,133.285385 308.455475,150.212204 
	C317.590942,159.875595 323.158417,171.885864 325.757935,185.552155 
z"/>
</svg>